<svg viewBox="0 0 512 512" xmlns="http://www.w3.org/2000/svg">
  <defs>
    <linearGradient id="orbisGrad" x1="0" y1="0" x2="1" y2="1">
      <stop offset="0%" stop-color="#0ea5e9"/>
      <stop offset="100%" stop-color="#6366f1"/>
    </linearGradient>
    <linearGradient id="planeGrad" x1="0" y1="0" x2="1" y2="0">
      <stop offset="0%" stop-color="#22d3ee"/>
      <stop offset="100%" stop-color="#a78bfa"/>
    </linearGradient>
  </defs>

  <circle cx="256" cy="256" r="240" fill="#0b1220"/>

  <ellipse cx="256" cy="256" rx="200" ry="80"
           fill="none" stroke="url(#orbisGrad)" stroke-width="6"
           transform="rotate(-25 256 256)"/>

  <ellipse cx="256" cy="256" rx="200" ry="80"
           fill="none" stroke="url(#orbisGrad)" stroke-width="3" opacity="0.5"
           transform="rotate(25 256 256)"/>

  <circle cx="256" cy="256" r="56" fill="url(#orbisGrad)"/>
  <circle cx="256" cy="256" r="56" fill="none" stroke="#fff" stroke-width="2" opacity="0.3"/>

  <g transform="translate(256 256) rotate(-25) translate(200 0) rotate(115)">
    <path d="M0,-22 L8,-6 L34,-2 L12,4 L6,26 L0,12 L-6,26 L-12,4 L-34,-2 L-8,-6 Z"
          fill="url(#planeGrad)"/>
  </g>

  <circle cx="256" cy="256" r="4" fill="#fff"/>
  <text x="256" y="262" text-anchor="middle"
        font-family="'Segoe UI', system-ui, sans-serif"
        font-weight="700" font-size="22" fill="#fff" letter-spacing="2">
    ORBIS
  </text>
</svg>
